<svg width="17" height="18" viewBox="0 0 17 18" fill="none" xmlns="http://www.w3.org/2000/svg">
<path fill-rule="evenodd" clip-rule="evenodd" d="M1.4165 4.5C1.4165 3.70435 1.71501 2.94129 2.24637 2.37868C2.77772 1.81607 3.49839 1.5 4.24984 1.5H12.7498C13.5013 1.5 14.222 1.81607 14.7533 2.37868C15.2847 2.94129 15.5832 3.70435 15.5832 4.5V13.5C15.5832 14.2956 15.2847 15.0587 14.7533 15.6213C14.222 16.1839 13.5013 16.5 12.7498 16.5H4.24984C3.49839 16.5 2.77772 16.1839 2.24637 15.6213C1.71501 15.0587 1.4165 14.2956 1.4165 13.5V4.5ZM4.24984 3C3.87411 3 3.51378 3.15804 3.2481 3.43934C2.98243 3.72064 2.83317 4.10218 2.83317 4.5V13.5C2.83317 13.8978 2.98243 14.2794 3.2481 14.5607C3.51378 14.842 3.87411 15 4.24984 15H12.7498C13.1256 15 13.4859 14.842 13.7516 14.5607C14.0172 14.2794 14.1665 13.8978 14.1665 13.5V4.5C14.1665 4.10218 14.0172 3.72064 13.7516 3.43934C13.4859 3.15804 13.1256 3 12.7498 3H4.24984ZM8.49984 6.75C7.93625 6.75 7.39575 6.98705 6.99723 7.40901C6.59872 7.83097 6.37484 8.40326 6.37484 9C6.37484 9.59674 6.59872 10.169 6.99723 10.591C7.39575 11.0129 7.93625 11.25 8.49984 11.25C9.06342 11.25 9.60392 11.0129 10.0024 10.591C10.401 10.169 10.6248 9.59674 10.6248 9C10.6248 8.40326 10.401 7.83097 10.0024 7.40901C9.60392 6.98705 9.06342 6.75 8.49984 6.75ZM4.95817 9C4.95817 8.00544 5.33131 7.05161 5.9955 6.34835C6.65969 5.64509 7.56053 5.25 8.49984 5.25C9.43915 5.25 10.34 5.64509 11.0042 6.34835C11.6684 7.05161 12.0415 8.00544 12.0415 9C12.0415 9.99456 11.6684 10.9484 11.0042 11.6517C10.34 12.3549 9.43915 12.75 8.49984 12.75C7.56053 12.75 6.65969 12.3549 5.9955 11.6517C5.33131 10.9484 4.95817 9.99456 4.95817 9ZM12.3957 6C12.6775 6 12.9477 5.88147 13.147 5.6705C13.3462 5.45952 13.4582 5.17337 13.4582 4.875C13.4582 4.57663 13.3462 4.29048 13.147 4.0795C12.9477 3.86853 12.6775 3.75 12.3957 3.75C12.1139 3.75 11.8436 3.86853 11.6444 4.0795C11.4451 4.29048 11.3332 4.57663 11.3332 4.875C11.3332 5.17337 11.4451 5.45952 11.6444 5.6705C11.8436 5.88147 12.1139 6 12.3957 6Z" fill="white"/>
</svg>
