<svg width="21" height="18" viewBox="0 0 21 18" fill="none" xmlns="http://www.w3.org/2000/svg">
<path fill-rule="evenodd" clip-rule="evenodd" d="M15.3321 8.092C12.7534 6.56067 8.5001 6.42 6.0381 7.16733C5.64276 7.28733 5.22476 7.064 5.10543 6.66867C4.98543 6.27333 5.2081 5.85533 5.6041 5.73533C8.4301 4.87733 13.1274 5.04333 16.0961 6.80533C16.4514 7.01667 16.5681 7.47533 16.3574 7.83067C16.1468 8.186 15.6874 8.30333 15.3321 8.092ZM15.2481 10.3607C15.0668 10.654 14.6834 10.746 14.3901 10.566C12.2401 9.24467 8.9621 8.86133 6.4181 9.63333C6.08876 9.73333 5.7401 9.54733 5.6401 9.218C5.54076 8.888 5.72676 8.54067 6.0561 8.44C8.96143 7.55867 12.5734 7.98533 15.0428 9.50333C15.3361 9.68333 15.4281 10.068 15.2481 10.3607ZM14.2688 12.5387C14.1254 12.7747 13.8181 12.8487 13.5834 12.7047C11.7048 11.5567 9.3401 11.2973 6.55543 11.9333C6.28743 11.9947 6.0201 11.8267 5.95876 11.5587C5.89743 11.29 6.06476 11.0227 6.33343 10.9613C9.38076 10.2647 11.9948 10.5647 14.1034 11.8533C14.3388 11.9967 14.4128 12.304 14.2688 12.5387ZM10.6001 1C6.1821 1 2.6001 4.582 2.6001 9C2.6001 13.4187 6.1821 17 10.6001 17C15.0188 17 18.6001 13.4187 18.6001 9C18.6001 4.582 15.0188 1 10.6001 1Z" fill="white"/>
</svg>
