<svg width="18" height="18" viewBox="0 0 18 18" fill="none" xmlns="http://www.w3.org/2000/svg">
<path d="M13.9064 4.42183C13.8005 4.36602 13.6974 4.30483 13.5975 4.23851C13.3069 4.04267 13.0406 3.81191 12.8041 3.55121C12.2124 2.86091 11.9915 2.16061 11.9101 1.6703H11.9133C11.8453 1.26332 11.8734 1 11.8777 1H9.18281V11.6255C9.18281 11.7681 9.18281 11.9091 9.17692 12.0484C9.17692 12.0658 9.17529 12.0818 9.17431 12.1004C9.17431 12.1081 9.17431 12.1161 9.17267 12.1241C9.17267 12.1261 9.17267 12.1281 9.17267 12.1301C9.14427 12.5114 9.02441 12.8796 8.82365 13.2026C8.6229 13.5255 8.34739 13.7931 8.02136 13.982C7.68158 14.1791 7.29727 14.2825 6.90634 14.282C5.65075 14.282 4.63314 13.2381 4.63314 11.9488C4.63314 10.6595 5.65075 9.61557 6.90634 9.61557C7.14402 9.61535 7.38023 9.65348 7.60621 9.72856L7.60948 6.9307C6.92346 6.84035 6.22651 6.89594 5.56261 7.09398C4.89871 7.29201 4.28227 7.62819 3.75217 8.08131C3.28768 8.49283 2.89718 8.98383 2.59825 9.53224C2.48449 9.73223 2.05528 10.5359 2.00331 11.8401C1.97062 12.5804 2.18865 13.3474 2.2926 13.6644V13.671C2.35798 13.8577 2.61132 14.4947 3.02419 15.0316C3.3571 15.4624 3.75043 15.8407 4.19151 16.1546V16.1479L4.19805 16.1546C5.50267 17.0585 6.94916 16.9992 6.94916 16.9992C7.19956 16.9889 8.03836 16.9992 8.99092 16.5389C10.0474 16.0286 10.6489 15.2683 10.6489 15.2683C11.0332 14.814 11.3387 14.2963 11.5524 13.7374C11.7963 13.0837 11.8777 12.2998 11.8777 11.9865V6.3494C11.9104 6.3694 12.3458 6.66305 12.3458 6.66305C12.3458 6.66305 12.9731 7.07303 13.9518 7.34002C14.654 7.53001 15.6 7.57001 15.6 7.57001V4.84214C15.2685 4.87881 14.5955 4.77215 13.9064 4.42183Z" fill="white"/>
</svg>
