<svg width="92" height="38" viewBox="0 0 92 38" fill="none" xmlns="http://www.w3.org/2000/svg">
<g clip-path="url(#clip0_123_1597)">
<path d="M15.5557 37.7445L0.192905 22.3196C0.0696051 22.1958 0 22.0281 0 21.8534V0.659924C0 0.295518 0.29433 0 0.657271 0H80.9079C81.0819 0 81.249 0.0698861 81.3723 0.193684L91.8071 10.6706C91.9304 10.7944 92 10.9621 92 11.1368V37.2792C92 37.6436 91.7057 37.9391 91.3427 37.9391H16.0201C15.8461 37.9391 15.679 37.8693 15.5557 37.7455V37.7445Z" fill="#231F20"/>
<path d="M31.3102 1.74626C31.2486 1.68436 31.1651 1.64941 31.0776 1.64941H19.8503C19.7627 1.64941 19.6792 1.68436 19.6176 1.74626L18.1668 3.20288C18.1052 3.26478 18.0704 3.34864 18.0704 3.4365V27.7119C18.0704 27.8936 18.2175 28.0414 18.3985 28.0414H24.3129C24.4939 28.0414 24.6411 27.8936 24.6411 27.7119V24.8795C24.6411 24.7917 24.6759 24.7078 24.7375 24.6459L26.0033 23.375C26.1068 23.2712 26.2837 23.345 26.2837 23.4918V27.7119C26.2837 27.8936 26.4309 28.0414 26.6119 28.0414H32.5263C32.7073 28.0414 32.8545 27.8936 32.8545 27.7119V3.4355C32.8545 3.34765 32.8197 3.26378 32.758 3.20188L31.3072 1.74526L31.3102 1.74626ZM26.2857 16.4263C26.2857 16.4703 26.2688 16.5122 26.238 16.5431L24.9235 17.863C24.8201 17.9668 24.6431 17.8929 24.6431 17.7462V8.41239C24.6431 8.32154 24.7166 8.24766 24.8071 8.24766H26.1217C26.2122 8.24766 26.2857 8.32154 26.2857 8.41239V16.4263ZM16.0995 1.64941H10.1851C10.0041 1.64941 9.85695 1.79717 9.85695 1.97888V19.6571C9.85695 19.7449 9.82215 19.8288 9.7605 19.8907L8.49468 21.1616C8.39127 21.2654 8.21427 21.1916 8.21427 21.0448V1.97988C8.21427 1.79817 8.06711 1.65041 7.88614 1.65041H1.97169C1.79072 1.65041 1.64355 1.79817 1.64355 1.97988V21.3074C1.64355 21.3952 1.67836 21.4791 1.74001 21.541L8.11881 27.9455C8.18047 28.0074 8.26399 28.0424 8.35149 28.0424H9.72172C9.80922 28.0424 9.89275 28.0074 9.9544 27.9455L16.3332 21.541C16.3949 21.4791 16.4297 21.3952 16.4297 21.3074V1.97988C16.4297 1.79817 16.2825 1.65041 16.1015 1.65041L16.0995 1.64941ZM47.739 1.74626C47.6774 1.68436 47.5938 1.64941 47.5063 1.64941H34.8283C34.6473 1.64941 34.5001 1.79717 34.5001 1.97888V27.7109C34.5001 27.8926 34.6473 28.0404 34.8283 28.0404H40.7427C40.9237 28.0404 41.0709 27.8926 41.0709 27.7109V25.0722C41.0709 24.8905 41.218 24.7428 41.399 24.7428H47.5053C47.5928 24.7428 47.6764 24.7078 47.738 24.6459L49.1888 23.1893C49.2504 23.1274 49.2852 23.0435 49.2852 22.9557V3.4355C49.2852 3.34765 49.2504 3.26378 49.1888 3.20188L47.738 1.74526L47.739 1.74626ZM42.7145 19.1659C42.7145 19.2567 42.6409 19.3306 42.5505 19.3306H41.2359C41.1454 19.3306 41.0718 19.2567 41.0718 19.1659V8.41239C41.0718 8.32154 41.1454 8.24766 41.2359 8.24766H42.5505C42.6409 8.24766 42.7145 8.32154 42.7145 8.41239V19.1659ZM82.0464 3.20288L80.5956 1.74626C80.5339 1.68436 80.4504 1.64941 80.3629 1.64941H67.6848C67.5039 1.64941 67.3567 1.79717 67.3567 1.97888V27.7109C67.3567 27.8926 67.5039 28.0404 67.6848 28.0404H73.5993C73.7803 28.0404 73.9274 27.8926 73.9274 27.7109V21.4431C73.9274 21.2455 74.2108 21.2175 74.2496 21.4112L75.5174 27.7758C75.5482 27.9296 75.6835 28.0414 75.8396 28.0414H81.7411C81.9489 28.0414 82.104 27.8507 82.0633 27.647L80.4991 19.7938L82.0941 18.1924C82.1249 18.1615 82.1418 18.1196 82.1418 18.0756V3.4355C82.1418 3.34765 82.107 3.26378 82.0454 3.20188L82.0464 3.20288ZM75.5711 14.777C75.5711 14.8209 75.5542 14.8629 75.5234 14.8938L74.2088 16.2137C74.1054 16.3175 73.9284 16.2436 73.9284 16.0969V8.41239C73.9284 8.32154 74.002 8.24766 74.0925 8.24766H75.407C75.4975 8.24766 75.5711 8.32154 75.5711 8.41239V14.777ZM64.1678 1.74626C64.1061 1.68436 64.0226 1.64941 63.9351 1.64941H52.7078C52.6203 1.64941 52.5368 1.68436 52.4751 1.74626L51.0244 3.20288C50.9627 3.26478 50.9279 3.34864 50.9279 3.4365V26.2563C50.9279 26.3442 50.9627 26.428 51.0244 26.4899L52.4751 27.9465C52.5368 28.0084 52.6203 28.0434 52.7078 28.0434H63.9351C64.0226 28.0434 64.1061 28.0084 64.1678 27.9465L65.6186 26.4899C65.6802 26.428 65.715 26.3442 65.715 26.2563V3.4355C65.715 3.34765 65.6802 3.26378 65.6186 3.20188L64.1678 1.74526V1.74626ZM59.1423 21.3263C59.1423 21.4172 59.0687 21.4911 58.9782 21.4911H57.6637C57.5732 21.4911 57.4996 21.4172 57.4996 21.3263V8.41239C57.4996 8.32154 57.5732 8.24766 57.6637 8.24766H58.9782C59.0687 8.24766 59.1423 8.32154 59.1423 8.41239V21.3263Z" fill="#F8F8F8"/>
</g>
<defs>
<clipPath id="clip0_123_1597">
<rect width="92" height="37.9381" fill="white"/>
</clipPath>
</defs>
</svg>
